<svg id="emoji" viewBox="0 0 72 72" xmlns="http://www.w3.org/2000/svg">
  <g id="grid">
    <path fill="#b3b3b3" d="M68,4V68H4V4H68m4-4H0V72H72V0Z"/>
    <path fill="none" stroke="#00a5ff" stroke-miterlimit="10" stroke-width="0.1" d="M12.923,10.9583H59.0769A1.9231,1.9231,0,0,1,61,12.8814V59.0352a1.9231,1.9231,0,0,1-1.9231,1.9231H12.9231A1.9231,1.9231,0,0,1,11,59.0352V12.8813A1.923,1.923,0,0,1,12.923,10.9583Z"/>
    <rect x="16" y="4" rx="2.2537" width="40" height="64" fill="none" stroke="#00a5ff" stroke-miterlimit="10" stroke-width="0.1"/>
    <rect x="16" y="4" rx="2.2537" width="40" height="64" transform="translate(72) rotate(90)" fill="none" stroke="#00a5ff" stroke-miterlimit="10" stroke-width="0.1"/>
    <circle cx="36" cy="36" r="29" fill="none" stroke="#00a5ff" stroke-miterlimit="10" stroke-width="0.1"/>
  </g>
  <g id="color"/>
  <g id="line">
    <path fill="none" stroke="#000" stroke-miterlimit="10" stroke-width="2" d="m33.657 48.669c.662.4427 1.0785 1.1938 1.1579 2.0882.0793.8944-.1849 1.8588-.7347 2.6809-.5498.8222-1.34 1.4348-2.1969 1.7031-.8569.2684-1.7102.1704-2.3722-.2723s-1.0785-1.1938-1.1579-2.0882c-.0793-.8944.1849-1.8588.7347-2.6809.5498-.8222 1.34-1.4348 2.1969-1.7031.8569-.2684 1.7102-.1704 2.3722.2723z"/>
    <path d="M30.5831,48.93l-.2992-2.1686s-1.1385.02-.5878-.7848l2.3613-.279.3392,2.4585A3.2,3.2,0,0,0,30.5831,48.93Z"/>
    <line x1="31.221" x2="38.088" y1="46.1526" y2="32.7142" fill="none" stroke="#000" stroke-linecap="round" stroke-linejoin="round" stroke-width="2"/>
    <path fill="none" stroke="#000" stroke-miterlimit="10" stroke-width="2" d="m25.281 44.225c.7074.3658 1.2053 1.0657 1.3842 1.9456s.0241 1.8677-.4303 2.7462c-.4543.8785-1.1711 1.5757-1.9926 1.9382-.8215.3624-1.6804.3605-2.3877-.0053-.7074-.3659-1.2053-1.0658-1.3842-1.9457s-.0241-1.8677.4302-2.7462c.4544-.8785 1.1712-1.5757 1.9927-1.9381.8214-.3625 1.6803-.3606 2.3877.0053z"/>
    <path d="M26.2019,46.375l2.0434-.7854s.532,1.0067.971.1356l-.8-2.0978-2.3166.89A3.1724,3.1724,0,0,1,26.2019,46.375Z"/>
    <line x1="28.3397" x2="37.2929" y1="44.6479" y2="31.8871" fill="none" stroke="#000" stroke-linecap="round" stroke-linejoin="round" stroke-width="2"/>
    <path fill="none" stroke="#000" stroke-linecap="round" stroke-linejoin="round" stroke-width="2" d="M47.0234,19.2768s4.32,2.9181-.5265,5.981L40.604,28.3646"/>
    <path fill="none" stroke="#000" stroke-linecap="round" stroke-linejoin="round" stroke-width="2" d="M44.32,18.1092s-4.7619-2.1223-4.7969,3.6111l.4813,6.6443"/>
    <path d="m40.444 27.699c.8328.4808 1.1161 1.5383.6353 2.3711l-1.1035 1.9114c-.4808.8328-1.5384 1.1162-2.3711.6354-.8328-.4808-1.1162-1.5383-.6353-2.3711l1.1035-1.9114c.4808-.8328 1.5383-1.1162 2.3711-.6354z"/>
  </g>
  <g id="color-foreground">
    <circle cx="39.0202" cy="30.132" r="0.6126" fill="#fff"/>
  </g>
</svg>
